<?xml version="1.0" standalone="no"?>
<!DOCTYPE svg PUBLIC "-//W3C//DTD SVG 20010904//EN"
 "http://www.w3.org/TR/2001/REC-SVG-20010904/DTD/svg10.dtd">
<svg version="1.0" xmlns="http://www.w3.org/2000/svg"
 width="705.000000pt" height="705.000000pt" viewBox="0 0 705.000000 705.000000"
 preserveAspectRatio="xMidYMid meet">
<metadata>
Created by potrace 1.11, written by Peter Selinger 2001-2013
</metadata>
<g transform="translate(0.000000,705.000000) scale(0.100000,-0.100000)"
fill="#000000" stroke="none">
<path d="M6648 5248 c-41 -51 -110 -140 -153 -198 -70 -94 -189 -232 -282
-329 -18 -19 -33 -38 -33 -43 0 -5 -4 -7 -9 -4 -5 3 -21 -10 -36 -29 -14 -20
-31 -33 -36 -30 -5 4 -12 -1 -15 -10 -8 -21 -78 -73 -337 -250 -334 -230 -610
-364 -1122 -545 -110 -39 -216 -77 -235 -84 -39 -16 -308 -101 -385 -122 -87
-25 -318 -76 -380 -84 -33 -5 -107 -16 -165 -25 -58 -8 -161 -17 -230 -20 -69
-3 -159 -8 -200 -11 -187 -14 -547 4 -720 37 -88 16 -150 41 -150 59 0 9 18
99 41 200 22 101 38 189 35 196 -6 17 63 350 116 564 7 25 20 60 31 78 10 17
27 65 38 105 21 82 22 87 11 87 -10 0 -126 -98 -130 -110 -7 -21 -70 -84 -124
-126 -31 -24 -63 -50 -70 -57 -7 -7 -60 -53 -118 -104 -58 -50 -121 -107 -140
-128 -19 -20 -48 -43 -65 -50 -16 -7 -64 -43 -105 -79 -41 -36 -79 -66 -84
-66 -5 0 -133 65 -285 144 -152 79 -337 174 -411 211 -74 38 -143 75 -152 83
-10 8 -18 12 -18 8 0 -3 -13 0 -30 9 -40 21 -64 20 -55 -2 4 -10 8 -25 11 -33
16 -63 26 -93 48 -145 14 -33 26 -67 26 -76 0 -40 186 -509 222 -561 24 -34
23 -45 -4 -53 -13 -3 -39 -10 -58 -15 -19 -5 -75 -19 -125 -30 -128 -30 -255
-65 -445 -123 -91 -27 -198 -59 -237 -70 -40 -11 -73 -23 -73 -27 0 -3 60 -34
133 -67 72 -33 204 -94 292 -136 88 -41 273 -125 410 -188 138 -62 256 -118
263 -124 7 -6 35 -123 62 -259 27 -137 66 -323 85 -415 101 -468 107 -493 125
-475 5 5 67 115 138 244 136 247 354 629 380 668 7 11 35 2 133 -43 241 -111
450 -181 619 -209 144 -23 616 -73 875 -92 321 -23 607 -12 950 37 217 31 371
72 715 191 63 22 158 54 210 73 206 71 352 130 545 220 17 8 68 31 115 51 47
20 154 70 237 110 84 40 162 76 174 79 38 12 568 286 575 297 5 8 -32 9 -122
6 -71 -3 -163 -1 -204 3 -84 10 -400 107 -407 125 -9 25 208 316 374 503 57
64 103 119 103 122 0 4 -108 8 -240 11 -131 2 -242 6 -245 9 -5 6 133 432 178
549 14 36 44 115 67 175 23 61 48 124 55 140 58 132 130 334 122 341 -3 3 -39
-36 -79 -88z"/>
</g>
</svg>
